<?xml version="1.0" encoding="UTF-8"?>
<svg version="1.1" xmlns="http://www.w3.org/2000/svg" width="471" height="490">
<style>
  path { fill: #154992; }
  @media (prefers-color-scheme: dark) {
    path { fill: #ffffff; }
  }
</style>
<path d="M0 0 C1.41330963 -0.0018707 2.82661875 -0.00417243 4.23992705 -0.00686532 C8.10524071 -0.0129577 11.97053265 -0.01285276 15.83585 -0.01167095 C20.01185197 -0.01146629 24.18784708 -0.01699188 28.36384583 -0.02172852 C36.5385284 -0.03002152 44.71320376 -0.03278274 52.88789019 -0.03334089 C59.5351626 -0.03381669 66.18243263 -0.03587459 72.82970428 -0.03904152 C91.69145078 -0.04784434 110.55319159 -0.05246147 129.41494015 -0.05171105 C130.4309756 -0.05167109 131.44701105 -0.05163113 132.49383545 -0.05158997 C133.51111677 -0.05154909 134.52839808 -0.0515082 135.57650611 -0.05146609 C152.06003713 -0.0510597 168.5435453 -0.0606283 185.02706972 -0.07472833 C201.96743494 -0.08910439 218.90778903 -0.09599784 235.84816051 -0.09513456 C245.3527757 -0.09480302 254.85736694 -0.09753128 264.36197662 -0.10831261 C272.45463532 -0.11743377 280.54725918 -0.11957959 288.6399208 -0.11280318 C292.76506103 -0.10954616 296.89013451 -0.10945163 301.01526833 -0.11815643 C304.79912824 -0.12605864 308.58286888 -0.12455235 312.36672601 -0.1158723 C314.36785596 -0.11362787 316.36898972 -0.12113663 318.37010503 -0.12911195 C339.11301983 -0.05060858 357.05819872 5.06339154 372.17108154 19.75871277 C388.72437172 36.56593645 393.30919255 56.522781 393.22409058 79.24311829 C393.22496362 80.98004083 393.22671641 82.71696312 393.22926891 84.45388401 C393.23372706 89.20858395 393.22575986 93.96319327 393.21571279 98.71788168 C393.20705847 103.85204145 393.20999985 108.98619631 393.21151733 114.12036133 C393.21256493 123.00962149 393.20630141 131.89885224 393.19504166 140.78810501 C393.17877266 153.64039536 393.17357722 166.49267152 393.17106567 179.34497105 C393.16669077 200.19806228 393.15338721 221.05113785 393.13446045 241.90422058 C393.11609636 262.15845156 393.10194244 282.41267827 393.09344482 302.66691589 C393.09291938 303.91583981 393.09239393 305.16476372 393.09185256 306.45153381 C393.08924244 312.71715329 393.08671504 318.98277281 393.08422875 325.24839234 C393.06350263 377.21017664 393.02828266 429.17194394 392.98358154 481.13371277 C389.73226149 479.8623689 386.81454684 478.53881855 383.86639404 476.66496277 C383.10318848 476.18196716 382.33998291 475.69897156 381.5536499 475.20133972 C380.74677734 474.68402283 379.93990479 474.16670593 379.10858154 473.63371277 C378.25852539 473.09254822 377.40846924 472.55138367 376.53265381 471.99382019 C371.0459515 468.48869897 365.60357273 464.92281223 360.20111084 461.28947449 C352.5143282 456.12556989 344.74804456 451.08229179 336.99310303 446.02165222 C335.91617187 445.31871033 334.83924072 444.61576843 333.72967529 443.89152527 C332.76730957 443.26391296 331.80494385 442.63630066 330.81341553 441.9896698 C329.87957031 441.37720398 328.9457251 440.76473816 327.98358154 440.13371277 C326.95009771 439.72645336 325.91661388 439.31919395 324.85181236 438.89959335 C321.42081603 435.59102904 321.50368046 434.65610992 321.24529457 430.03488541 C321.21990338 427.36000567 321.22733625 424.69732692 321.26205444 422.02366638 C321.25943874 420.5394041 321.25418664 419.05514451 321.24651945 417.57089972 C321.23307643 413.48641867 321.25713793 409.40287813 321.28718781 405.31851697 C321.31305339 400.91636477 321.30433357 396.51426734 321.29977417 392.11206055 C321.29662516 384.48306419 321.31547998 376.85437526 321.3492012 369.22545624 C321.39792475 358.1953193 321.4135859 347.16533132 321.42112915 336.13509843 C321.43426704 318.24018373 321.47421325 300.34543296 321.53094482 282.4506073 C321.58600313 265.06552438 321.62841265 247.68048617 321.6539917 230.29533386 C321.65559968 229.21312227 321.65720767 228.13091067 321.65886438 227.01590478 C321.67134062 218.55253552 321.68308227 210.08916528 321.69459176 201.62579465 C321.75121318 160.12828357 321.87191803 118.63118275 321.98358154 77.13371277 C213.08358154 77.13371277 104.18358154 77.13371277 -8.01641846 77.13371277 C-7.80759033 102.38129089 -7.59876221 127.62886902 -7.38360596 153.64152527 C-7.2916537 169.61941201 -7.20415003 185.59713634 -7.13751221 201.57511902 C-7.10227203 209.96851735 -7.06590379 218.36190964 -7.02764893 226.7552948 C-7.02290145 227.80722743 -7.01815397 228.85916006 -7.01326263 229.94296944 C-6.93503467 246.9122565 -6.79316217 263.88044247 -6.62766813 280.84907724 C-6.45916811 298.27160733 -6.35932506 315.69356218 -6.32282555 333.11687362 C-6.29816048 343.86343121 -6.22035711 354.60687793 -6.07392205 365.35247742 C-5.97855689 372.72748149 -5.95006248 380.10088454 -5.97339366 387.47645999 C-5.98489485 391.72933473 -5.96765556 395.97678857 -5.87071991 400.2286911 C-5.29022664 427.00580081 -5.29022664 427.00580081 -11.87759781 434.11536789 C-15.53308773 437.28119066 -19.42143369 439.67243319 -23.71188188 441.87866759 C-27.46429616 443.92222355 -30.7274189 446.56388376 -34.07891846 449.19621277 C-35.3863843 450.17732403 -36.69599925 451.15558382 -38.00860596 452.12980652 C-42.26267111 455.31038656 -46.48584147 458.53062157 -50.70391846 461.75871277 C-51.76086914 462.56647156 -51.76086914 462.56647156 -52.83917236 463.39054871 C-56.20855181 465.96911544 -59.56755367 468.55949711 -62.90704346 471.17668152 C-63.50814941 471.64573914 -64.10925537 472.11479675 -64.72857666 472.59806824 C-66.34701529 473.86268096 -67.96116917 475.13277184 -69.57501221 476.40324402 C-72.01641846 478.13371277 -72.01641846 478.13371277 -74.01641846 478.13371277 C-74.17668698 423.21043138 -74.30000974 368.28717364 -74.37387576 313.36370435 C-74.38263057 306.8775349 -74.39169084 300.39136591 -74.40093994 293.90519714 C-74.40277611 292.61393329 -74.40461229 291.32266944 -74.4065041 289.99227639 C-74.43695224 269.09214934 -74.49213823 248.19215726 -74.55648803 227.29211025 C-74.62197949 205.84215568 -74.66083647 184.39227173 -74.67503792 162.94222128 C-74.68463637 149.70938701 -74.71493749 136.47693424 -74.77183373 123.24421741 C-74.80887346 114.16650683 -74.8200105 105.08899309 -74.8109281 96.01121245 C-74.80645044 90.77592762 -74.81324943 85.54130881 -74.85085678 80.30614281 C-74.88508405 75.50629439 -74.88653838 70.70755572 -74.86271072 65.90765472 C-74.85976873 64.1779195 -74.86851261 62.4481132 -74.89060073 60.71851651 C-75.10868215 42.57623685 -68.43590481 31.20938814 -55.96954346 17.95793152 C-40.37116714 2.85799956 -20.85710164 -0.02485498 0 0 Z " transform="translate(74.01641845703125,0.8662872314453125)"/>
<path d="M0 0 C0.86238281 0.55558594 1.72476563 1.11117187 2.61328125 1.68359375 C3.24314941 2.08819824 3.87301758 2.49280273 4.52197266 2.90966797 C6.85331629 4.4396286 9.14007346 6.02380518 11.42578125 7.62109375 C12.69373535 8.49834106 12.69373535 8.49834106 13.98730469 9.39331055 C15.71693787 10.59011141 17.44529685 11.78875591 19.17236328 12.98925781 C21.93775575 14.9088241 24.71362402 16.81261768 27.49145508 18.71411133 C34.60014833 23.58273638 41.66998594 28.50658133 48.73828125 33.43359375 C57.48142897 39.52754517 66.26233354 45.56306596 75.08056641 51.54785156 C76.71593419 52.65853754 78.34180988 53.78340967 79.95504189 54.92600918 C82.53981163 56.72301892 82.53981163 56.72301892 85.24724388 57.94149113 C88.32390824 59.56826515 90.34578832 61.02483474 92.61328125 63.68359375 C94.0950449 69.4141576 93.880023 75.02619305 93.74853516 80.90991211 C93.74571253 82.67446735 93.74730146 84.43903434 93.75296021 86.20358276 C93.75582528 90.98297577 93.6971103 95.75985041 93.62722063 100.53865886 C93.564633 105.53667414 93.55882763 110.53474962 93.54696655 115.53309631 C93.51590647 124.99302393 93.4338757 134.4517935 93.33347166 143.91121155 C93.22162962 154.6824681 93.16669845 165.45378047 93.11651731 176.22547328 C93.01203988 198.37882604 92.83619084 220.5311369 92.61328125 242.68359375 C88.74151994 241.42260632 85.19487907 240.07582697 81.59765625 238.1640625 C80.61458496 237.64674561 79.63151367 237.12942871 78.61865234 236.59643555 C77.54437988 236.02707275 76.47010742 235.45770996 75.36328125 234.87109375 C61.23385936 227.45647732 46.96686429 220.32832327 32.67480469 213.2331543 C30.95373565 212.37687155 29.23270641 211.5205088 27.51171875 210.6640625 C26.67890381 210.25145676 25.84608887 209.83885101 24.98803711 209.41374207 C20.8581682 207.35561815 16.7731388 205.24422461 12.73535156 203.01025391 C11.96204498 202.58553299 11.1887384 202.16081207 10.39199829 201.72322083 C8.94087871 200.92054639 7.49630521 200.1058743 6.05990601 199.27714539 C3.35376557 197.78203562 1.25467721 196.67529333 -1.87695312 196.71582031 C-5.38417431 198.06821572 -8.73557076 199.66459475 -12.08203125 201.3671875 C-12.82215454 201.73800446 -13.56227783 202.10882141 -14.3248291 202.49087524 C-16.72355167 203.69491002 -19.11769263 204.90775142 -21.51171875 206.12109375 C-23.17219558 206.95728297 -24.83284074 207.793138 -26.49365234 208.62866211 C-35.05083954 212.94143256 -43.57608606 217.30611712 -52.02734375 221.82348633 C-60.44752506 226.29766798 -68.98574748 230.54078834 -77.51171875 234.80859375 C-78.29025208 235.19910919 -79.0687854 235.58962463 -79.87091064 235.99197388 C-82.08596927 237.10243293 -84.30246626 238.20995938 -86.51953125 239.31640625 C-87.19769897 239.65648209 -87.8758667 239.99655792 -88.57458496 240.34693909 C-93.27146565 242.68359375 -93.27146565 242.68359375 -94.38671875 242.68359375 C-94.64377559 219.48335783 -94.83770241 196.28335696 -94.95665264 173.08198547 C-95.01335383 162.30889255 -95.09064332 151.53668484 -95.21655273 140.76416016 C-95.32625459 131.37383431 -95.39717318 121.98414953 -95.42169219 112.59320068 C-95.43602389 107.6211612 -95.46965448 102.65095551 -95.54974937 97.67950439 C-95.6245744 92.99709333 -95.64741754 88.31726573 -95.63090324 83.63431358 C-95.63392277 81.91854479 -95.65571935 80.20268723 -95.69797897 78.48743629 C-96.00114193 65.54466446 -96.00114193 65.54466446 -92.01799965 60.95298767 C-89.22521189 58.89423983 -86.46454201 57.27441675 -83.38671875 55.68359375 C-81.81612764 54.62552477 -80.25713106 53.54969021 -78.71875 52.4453125 C-77.2133369 51.41896157 -75.70680825 50.39424514 -74.19921875 49.37109375 C-72.54285978 48.24234739 -70.88661154 47.11343852 -69.23046875 45.984375 C-68.0084375 45.15220459 -68.0084375 45.15220459 -66.76171875 44.30322266 C-63.234395 41.89776771 -59.71617365 39.47917353 -56.19921875 37.05859375 C-54.88412283 36.15363384 -53.56901872 35.24868585 -52.25390625 34.34375 C-51.61163086 33.9017627 -50.96935547 33.45977539 -50.30761719 33.00439453 C-48.42096043 31.70713817 -46.53296959 30.4118487 -44.64453125 29.1171875 C-36.51766354 23.54316401 -28.41531333 17.93442796 -20.32421875 12.30859375 C-19.34831787 11.63030518 -18.37241699 10.9520166 -17.36694336 10.25317383 C-16.43374268 9.60372803 -15.50054199 8.95428223 -14.5390625 8.28515625 C-13.64944824 7.67188477 -12.75983398 7.05861328 -11.84326172 6.42675781 C-10.30595166 5.33588186 -8.79401563 4.20724177 -7.32470703 3.02636719 C-3.03081388 -0.40179366 -3.03081388 -0.40179366 0 0 Z " transform="translate(232.38671875,142.31640625)"/>
</svg>
